<svg xmlns="http://www.w3.org/2000/svg" xmlns:xlink="http://www.w3.org/1999/xlink" width="500" zoomAndPan="magnify" viewBox="0 0 375 374.999991" height="500" preserveAspectRatio="xMidYMid meet" version="1.0"><defs><g/><clipPath id="b160d511a7"><path d="M 63 133 L 103 133 L 103 139.585938 L 63 139.585938 Z M 63 133 " clip-rule="nonzero"/></clipPath><clipPath id="6b08169705"><path d="M 77 56.335938 L 82 56.335938 L 82 60 L 77 60 Z M 77 56.335938 " clip-rule="nonzero"/></clipPath><clipPath id="710fc980b4"><path d="M 78 56.335938 L 82 56.335938 L 82 60 L 78 60 Z M 78 56.335938 " clip-rule="nonzero"/></clipPath><clipPath id="0fad80189d"><path d="M 78 56.335938 L 80 56.335938 L 80 59 L 78 59 Z M 78 56.335938 " clip-rule="nonzero"/></clipPath></defs><g clip-path="url(#b160d511a7)"><path fill="#2085b7" d="M 102.539062 136.597656 C 102.539062 136.792969 102.417969 136.988281 102.171875 137.179688 C 101.921875 137.375 101.558594 137.5625 101.074219 137.742188 C 100.589844 137.921875 99.996094 138.097656 99.292969 138.257812 C 98.589844 138.421875 97.789062 138.574219 96.894531 138.710938 C 96 138.851562 95.023438 138.976562 93.972656 139.085938 C 92.921875 139.195312 91.808594 139.285156 90.640625 139.363281 C 89.46875 139.4375 88.265625 139.492188 87.023438 139.53125 C 85.78125 139.570312 84.527344 139.589844 83.261719 139.589844 C 81.996094 139.589844 80.742188 139.570312 79.5 139.53125 C 78.261719 139.492188 77.054688 139.4375 75.886719 139.363281 C 74.714844 139.285156 73.605469 139.195312 72.550781 139.085938 C 71.5 138.976562 70.527344 138.851562 69.628906 138.710938 C 68.734375 138.574219 67.9375 138.421875 67.234375 138.257812 C 66.53125 138.097656 65.9375 137.921875 65.453125 137.742188 C 64.96875 137.5625 64.601562 137.375 64.355469 137.179688 C 64.109375 136.988281 63.984375 136.792969 63.984375 136.597656 C 63.984375 136.402344 64.109375 136.207031 64.355469 136.015625 C 64.601562 135.820312 64.96875 135.632812 65.453125 135.453125 C 65.9375 135.269531 66.53125 135.097656 67.234375 134.933594 C 67.9375 134.773438 68.734375 134.621094 69.628906 134.480469 C 70.527344 134.34375 71.5 134.21875 72.550781 134.109375 C 73.605469 134 74.714844 133.910156 75.886719 133.832031 C 77.054688 133.757812 78.261719 133.703125 79.5 133.664062 C 80.742188 133.625 81.996094 133.605469 83.261719 133.605469 C 84.527344 133.605469 85.78125 133.625 87.023438 133.664062 C 88.265625 133.703125 89.46875 133.757812 90.640625 133.832031 C 91.808594 133.910156 92.921875 134 93.972656 134.109375 C 95.023438 134.21875 96 134.34375 96.894531 134.480469 C 97.789062 134.621094 98.589844 134.773438 99.292969 134.933594 C 99.996094 135.097656 100.589844 135.269531 101.074219 135.453125 C 101.558594 135.632812 101.921875 135.820312 102.171875 136.015625 C 102.417969 136.207031 102.539062 136.402344 102.539062 136.597656 Z M 102.539062 136.597656 " fill-opacity="1" fill-rule="nonzero"/></g><path fill="#d5e9f2" d="M 97.117188 74.605469 C 92.109375 67.363281 79.925781 67.363281 79.925781 67.363281 C 79.925781 67.363281 67.742188 67.363281 62.734375 74.605469 C 58.132812 81.25 58.179688 90.328125 58.179688 90.328125 L 62.617188 95.984375 L 97.230469 95.984375 L 101.671875 90.328125 C 101.671875 90.328125 101.714844 81.25 97.117188 74.605469 Z M 97.117188 74.605469 " fill-opacity="1" fill-rule="nonzero"/><path fill="#a8d7e9" d="M 97.125 74.605469 C 95.160156 71.769531 92.09375 70.039062 89.089844 68.992188 C 90.644531 69.953125 92.054688 71.171875 93.136719 72.738281 C 97.738281 79.382812 97.695312 88.460938 97.695312 88.460938 L 93.257812 94.117188 L 61.160156 94.117188 L 62.625 95.984375 L 97.238281 95.984375 L 101.675781 90.328125 C 101.675781 90.328125 101.722656 81.25 97.125 74.605469 Z M 97.125 74.605469 " fill-opacity="1" fill-rule="nonzero"/><path fill="#002b43" d="M 90.96875 76.074219 C 86.300781 72.566406 73.546875 72.566406 68.882812 76.074219 C 63.8125 79.882812 63.984375 88.972656 63.984375 88.972656 L 95.863281 88.972656 C 95.863281 88.972656 96.035156 79.882812 90.96875 76.074219 Z M 90.96875 76.074219 " fill-opacity="1" fill-rule="nonzero"/><path fill="#000f16" d="M 64.117188 88.96875 C 64.429688 86.007812 65.464844 81.042969 68.882812 78.476562 C 73.546875 74.972656 86.300781 74.972656 90.96875 78.476562 C 94.382812 81.042969 95.417969 86.003906 95.730469 88.96875 L 95.863281 88.96875 C 95.863281 88.96875 96.035156 79.882812 90.96875 76.074219 C 86.300781 72.566406 73.546875 72.566406 68.882812 76.074219 C 63.8125 79.882812 63.984375 88.972656 63.984375 88.972656 Z M 64.117188 88.96875 " fill-opacity="1" fill-rule="nonzero"/><path fill="#d5e9f2" d="M 76.109375 65.667969 L 83.738281 65.667969 C 83.929688 65.667969 84.089844 65.734375 84.222656 65.867188 C 84.355469 66 84.421875 66.160156 84.421875 66.347656 L 84.421875 68.722656 C 84.421875 68.910156 84.355469 69.070312 84.222656 69.203125 C 84.089844 69.335938 83.929688 69.402344 83.738281 69.402344 L 76.109375 69.402344 C 75.921875 69.402344 75.761719 69.335938 75.628906 69.203125 C 75.496094 69.070312 75.429688 68.910156 75.429688 68.722656 L 75.429688 66.347656 C 75.429688 66.160156 75.496094 66 75.628906 65.867188 C 75.761719 65.734375 75.921875 65.667969 76.109375 65.667969 Z M 76.109375 65.667969 " fill-opacity="1" fill-rule="nonzero"/><path fill="#d5e9f2" d="M 77.894531 67.476562 L 78.917969 57.976562 L 80.285156 57.976562 L 81.957031 67.535156 Z M 77.894531 67.476562 " fill-opacity="1" fill-rule="nonzero"/><g clip-path="url(#6b08169705)"><path fill="#d5e9f2" d="M 81.289062 57.972656 C 81.289062 58.1875 81.25 58.394531 81.164062 58.597656 C 81.082031 58.796875 80.964844 58.972656 80.808594 59.128906 C 80.652344 59.28125 80.476562 59.398438 80.273438 59.480469 C 80.074219 59.566406 79.863281 59.605469 79.644531 59.605469 C 79.425781 59.605469 79.214844 59.566406 79.015625 59.480469 C 78.8125 59.398438 78.632812 59.28125 78.480469 59.128906 C 78.324219 58.972656 78.207031 58.796875 78.125 58.597656 C 78.039062 58.394531 77.996094 58.1875 77.996094 57.972656 C 77.996094 57.753906 78.039062 57.546875 78.125 57.34375 C 78.207031 57.144531 78.324219 56.96875 78.480469 56.8125 C 78.632812 56.660156 78.8125 56.542969 79.015625 56.460938 C 79.214844 56.375 79.425781 56.335938 79.644531 56.335938 C 79.863281 56.335938 80.074219 56.375 80.273438 56.460938 C 80.476562 56.542969 80.652344 56.660156 80.808594 56.8125 C 80.964844 56.96875 81.082031 57.144531 81.164062 57.34375 C 81.25 57.546875 81.289062 57.753906 81.289062 57.972656 Z M 81.289062 57.972656 " fill-opacity="1" fill-rule="nonzero"/></g><g clip-path="url(#710fc980b4)"><path fill="#a8d7e9" d="M 80.671875 56.695312 C 80.730469 56.820312 80.777344 56.949219 80.804688 57.085938 C 80.832031 57.222656 80.839844 57.359375 80.832031 57.496094 C 80.824219 57.636719 80.800781 57.773438 80.757812 57.90625 C 80.714844 58.035156 80.65625 58.160156 80.582031 58.28125 C 80.507812 58.398438 80.421875 58.503906 80.320312 58.597656 C 80.21875 58.695312 80.105469 58.777344 79.984375 58.84375 C 79.863281 58.910156 79.734375 58.960938 79.597656 58.996094 C 79.460938 59.03125 79.324219 59.050781 79.183594 59.050781 C 78.800781 59.050781 78.457031 58.929688 78.15625 58.691406 C 78.269531 58.910156 78.421875 59.097656 78.617188 59.25 C 78.8125 59.402344 79.03125 59.507812 79.277344 59.558594 C 79.519531 59.613281 79.761719 59.613281 80.003906 59.554688 C 80.246094 59.5 80.464844 59.394531 80.660156 59.242188 C 80.855469 59.085938 81.003906 58.898438 81.113281 58.675781 C 81.222656 58.453125 81.277344 58.21875 81.277344 57.96875 C 81.277344 57.722656 81.226562 57.488281 81.121094 57.261719 C 81.011719 57.039062 80.863281 56.851562 80.671875 56.695312 Z M 80.671875 56.695312 " fill-opacity="1" fill-rule="nonzero"/></g><path fill="#a8d7e9" d="M 62.617188 95.984375 L 97.230469 95.984375 L 101.671875 90.328125 L 58.179688 90.328125 Z M 62.617188 95.984375 " fill-opacity="1" fill-rule="nonzero"/><path fill="#a8d7e9" d="M 84.421875 67.609375 C 84.421875 67.851562 84.269531 68.046875 84.082031 68.046875 L 80.265625 68.046875 C 80.078125 68.046875 79.925781 67.855469 79.925781 67.609375 L 79.925781 66.097656 C 79.925781 65.859375 80.078125 65.664062 80.265625 65.664062 L 84.085938 65.664062 C 84.273438 65.664062 84.425781 65.855469 84.425781 66.097656 Z M 84.421875 67.609375 " fill-opacity="1" fill-rule="nonzero"/><path fill="#ffffff" d="M 73.109375 70.484375 C 72.554688 69.429688 70.042969 70.035156 69.222656 70.417969 C 68.554688 70.734375 67.339844 71.429688 66.566406 72.164062 C 65.949219 72.65625 65.402344 73.21875 64.929688 73.851562 C 64.535156 74.378906 63.789062 75.46875 64.269531 76.164062 C 64.796875 76.925781 65.6875 76.265625 66.128906 75.824219 C 67.277344 74.675781 68.160156 73.445312 69.71875 72.746094 C 70.484375 72.40625 73.765625 71.726562 73.109375 70.484375 Z M 73.109375 70.484375 " fill-opacity="1" fill-rule="nonzero"/><g clip-path="url(#0fad80189d)"><path fill="#ffffff" d="M 78.984375 57.03125 C 78.207031 57.214844 78.503906 58.832031 79.457031 57.960938 C 80.21875 57.269531 79.421875 56.835938 78.984375 57.03125 Z M 78.984375 57.03125 " fill-opacity="1" fill-rule="nonzero"/></g><path fill="#d5e9f2" d="M 103.515625 108.796875 L 96.753906 97.207031 L 63.097656 97.207031 L 56.332031 108.796875 C 56.332031 108.796875 56.621094 113.625 58.253906 118.039062 C 60.761719 124.828125 63.152344 127.542969 63.152344 127.542969 L 71.433594 130.71875 L 79.851562 131.488281 L 79.851562 131.5 C 79.851562 131.5 79.90625 131.492188 79.925781 131.492188 C 79.945312 131.492188 80 131.5 80 131.5 L 80 131.488281 L 88.417969 130.71875 L 96.695312 127.542969 C 96.695312 127.542969 99.699219 123.695312 101.59375 118.039062 C 103.089844 113.582031 103.515625 108.796875 103.515625 108.796875 Z M 103.515625 108.796875 " fill-opacity="1" fill-rule="nonzero"/><path fill="#a8d7e9" d="M 96.753906 97.207031 L 88.78125 97.207031 L 95.546875 108.796875 C 95.546875 108.796875 95.121094 113.578125 93.625 118.039062 C 91.730469 123.695312 90.882812 125.949219 88.726562 127.542969 C 86.949219 128.863281 80.449219 130.71875 80.449219 130.71875 L 75.941406 131.128906 L 79.851562 131.488281 L 79.851562 131.5 C 79.851562 131.5 79.90625 131.492188 79.925781 131.492188 C 79.945312 131.492188 80 131.5 80 131.5 L 80 131.488281 L 88.417969 130.71875 L 96.695312 127.542969 C 96.695312 127.542969 99.699219 123.695312 101.59375 118.039062 C 103.089844 113.582031 103.515625 108.796875 103.515625 108.796875 Z M 96.753906 97.207031 " fill-opacity="1" fill-rule="nonzero"/><path fill="#a8d7e9" d="M 56.332031 108.796875 L 103.515625 108.796875 L 101.675781 112.273438 Z M 56.332031 108.796875 " fill-opacity="1" fill-rule="nonzero"/><path fill="#ffffff" d="M 65.804688 116.484375 C 65.671875 114.804688 66.828125 112.484375 64.894531 111.59375 C 63.90625 111.140625 62.222656 110.953125 61.457031 111.933594 C 61.171875 112.3125 61.019531 112.742188 61.003906 113.21875 C 60.726562 114.417969 61.378906 116.171875 61.679688 117.253906 C 62.039062 118.519531 63.277344 122.972656 65.558594 121.757812 C 67.117188 120.929688 65.90625 117.730469 65.804688 116.484375 Z M 65.804688 116.484375 " fill-opacity="1" fill-rule="nonzero"/><path fill="#ffffff" d="M 68.285156 99.625 C 67.261719 98.171875 65.816406 98.65625 64.789062 99.710938 C 62.5 101.09375 60.070312 106.746094 63.53125 107.300781 C 65.523438 107.617188 66.136719 105.203125 66.808594 103.902344 C 67.429688 102.703125 69.292969 101.050781 68.285156 99.625 Z M 68.285156 99.625 " fill-opacity="1" fill-rule="nonzero"/><path fill="#d5e9f2" d="M 61.800781 97.207031 C 61.800781 97.207031 46.742188 95.054688 44.476562 95.984375 C 42.210938 96.914062 41.484375 100.140625 46.992188 103.4375 C 52.332031 106.640625 55.441406 107.511719 55.441406 107.511719 Z M 61.800781 97.207031 " fill-opacity="1" fill-rule="nonzero"/><path fill="#a8d7e9" d="M 44.300781 95.984375 C 44.527344 95.890625 46.757812 95.667969 47.207031 95.644531 C 47.945312 97.335938 45.191406 99.011719 48.578125 101.039062 C 52.246094 103.238281 55.03125 104.503906 57.582031 104.046875 L 55.445312 107.511719 C 55.445312 107.511719 52.332031 106.636719 46.992188 103.4375 C 41.484375 100.140625 42.035156 96.921875 44.300781 95.984375 Z M 44.300781 95.984375 " fill-opacity="1" fill-rule="nonzero"/><path fill="#d5e9f2" d="M 63.058594 128.546875 C 63.058594 128.546875 66.0625 136.332031 68.578125 136.589844 C 71.097656 136.84375 71.171875 131.503906 71.171875 131.503906 Z M 63.058594 128.546875 " fill-opacity="1" fill-rule="nonzero"/><path fill="#a8d7e9" d="M 69.144531 130.734375 C 69.117188 131.492188 68.882812 135.175781 67.113281 135.644531 C 67.632812 136.179688 68.15625 136.539062 68.664062 136.589844 C 71.183594 136.84375 71.253906 131.503906 71.253906 131.503906 Z M 69.144531 130.734375 " fill-opacity="1" fill-rule="nonzero"/><path fill="#d5e9f2" d="M 89.269531 131.503906 C 89.269531 131.503906 93.113281 137.371094 98.066406 136.148438 C 100.136719 135.632812 96.871094 128.546875 96.871094 128.546875 Z M 89.269531 131.503906 " fill-opacity="1" fill-rule="nonzero"/><path fill="#a8d7e9" d="M 96.871094 128.546875 L 94.808594 129.347656 C 95.640625 131.421875 96.953125 135.265625 95.449219 135.636719 C 95.054688 135.734375 94.65625 135.789062 94.253906 135.800781 C 95.398438 136.28125 96.691406 136.488281 98.066406 136.148438 C 100.136719 135.632812 96.871094 128.546875 96.871094 128.546875 Z M 96.871094 128.546875 " fill-opacity="1" fill-rule="nonzero"/><path fill="#3aedb1" d="M 84.429688 83.953125 C 84.355469 83.949219 84.292969 83.976562 84.238281 84.023438 C 84.1875 84.074219 84.15625 84.136719 84.15625 84.210938 C 84.15625 84.226562 84.109375 85.417969 83.347656 86.039062 C 82.621094 86.636719 81.300781 86.835938 80.660156 86.832031 C 80.0625 86.859375 78.703125 86.636719 77.976562 86.039062 C 77.214844 85.417969 77.164062 84.226562 77.164062 84.210938 C 77.164062 84.136719 77.136719 84.074219 77.082031 84.023438 C 77.027344 83.972656 76.964844 83.949219 76.890625 83.953125 C 76.816406 83.953125 76.753906 83.980469 76.703125 84.035156 C 76.652344 84.089844 76.628906 84.152344 76.632812 84.226562 C 76.632812 84.285156 76.683594 85.667969 77.636719 86.449219 C 78.605469 87.246094 79.859375 87.367188 80.535156 87.367188 C 81.335938 87.367188 82.714844 87.246094 83.6875 86.449219 C 84.636719 85.667969 84.6875 84.285156 84.691406 84.226562 C 84.691406 84.152344 84.667969 84.089844 84.617188 84.035156 C 84.566406 83.980469 84.503906 83.953125 84.429688 83.953125 Z M 84.429688 83.953125 " fill-opacity="1" fill-rule="nonzero"/><path fill="#3aedb1" d="M 74.761719 81.703125 C 74.65625 81.703125 74.566406 81.667969 74.492188 81.59375 C 74.417969 81.519531 74.378906 81.433594 74.378906 81.328125 C 74.355469 81 74.257812 80.695312 74.085938 80.414062 C 73.722656 79.839844 73.078125 79.550781 72.171875 79.550781 L 72.15625 79.550781 C 70.203125 79.558594 69.933594 81.1875 69.925781 81.253906 C 69.910156 81.359375 69.859375 81.441406 69.773438 81.503906 C 69.691406 81.566406 69.59375 81.589844 69.492188 81.574219 C 69.386719 81.558594 69.304688 81.511719 69.238281 81.425781 C 69.175781 81.34375 69.152344 81.25 69.167969 81.144531 C 69.289062 80.335938 70.074219 78.804688 72.152344 78.796875 L 72.175781 78.796875 C 75.082031 78.796875 75.144531 81.296875 75.144531 81.324219 C 75.144531 81.429688 75.109375 81.519531 75.035156 81.59375 C 74.960938 81.667969 74.871094 81.707031 74.765625 81.707031 Z M 74.761719 81.703125 " fill-opacity="1" fill-rule="nonzero"/><path fill="#3aedb1" d="M 90.3125 81.703125 C 90.207031 81.703125 90.117188 81.667969 90.042969 81.59375 C 89.96875 81.519531 89.929688 81.433594 89.929688 81.328125 C 89.90625 81 89.808594 80.695312 89.632812 80.414062 C 89.269531 79.839844 88.628906 79.550781 87.726562 79.550781 L 87.707031 79.550781 C 85.753906 79.558594 85.488281 81.1875 85.476562 81.253906 C 85.460938 81.359375 85.410156 81.441406 85.324219 81.503906 C 85.242188 81.566406 85.148438 81.589844 85.042969 81.574219 C 84.9375 81.558594 84.855469 81.511719 84.792969 81.425781 C 84.726562 81.34375 84.703125 81.25 84.71875 81.144531 C 84.839844 80.328125 85.621094 78.800781 87.707031 78.792969 L 87.730469 78.792969 C 90.636719 78.792969 90.691406 81.292969 90.691406 81.320312 C 90.695312 81.425781 90.65625 81.515625 90.585938 81.589844 C 90.511719 81.664062 90.421875 81.703125 90.316406 81.703125 Z M 90.3125 81.703125 " fill-opacity="1" fill-rule="nonzero"/><path fill="#2a56f4" d="M 59.0625 85.90625 L 41.078125 100.683594 L 41.09375 100.703125 C 40.046875 101.800781 39.886719 103.414062 40.761719 104.476562 C 41.640625 105.539062 43.273438 105.675781 44.554688 104.863281 L 44.570312 104.882812 L 62.558594 90.105469 Z M 59.0625 85.90625 " fill-opacity="1" fill-rule="nonzero"/><path fill="#0643f2" d="M 61.878906 89.273438 L 45.246094 102.9375 L 45.226562 102.917969 C 43.945312 103.730469 42.320312 103.589844 41.4375 102.527344 C 41.046875 102.058594 40.855469 101.519531 40.863281 100.910156 C 40.011719 101.988281 39.925781 103.453125 40.75 104.4375 C 41.632812 105.5 43.257812 105.640625 44.539062 104.828125 L 44.554688 104.847656 L 62.542969 90.066406 Z M 61.878906 89.273438 " fill-opacity="1" fill-rule="nonzero"/><path fill="#2a56f4" d="M 77.839844 72.425781 C 78.445312 73.027344 78.984375 73.683594 79.460938 74.390625 C 79.9375 75.097656 80.339844 75.84375 80.667969 76.632812 C 80.992188 77.417969 81.242188 78.226562 81.410156 79.0625 C 81.574219 79.898438 81.660156 80.742188 81.660156 81.589844 C 81.660156 82.441406 81.574219 83.285156 81.410156 84.121094 C 81.242188 84.953125 80.992188 85.765625 80.667969 86.550781 C 80.339844 87.339844 79.9375 88.085938 79.460938 88.792969 C 78.984375 89.5 78.445312 90.15625 77.839844 90.757812 C 77.234375 91.359375 76.574219 91.894531 75.863281 92.367188 C 75.148438 92.839844 74.398438 93.242188 73.605469 93.566406 C 72.816406 93.890625 72 94.136719 71.160156 94.304688 C 70.320312 94.46875 69.46875 94.554688 68.613281 94.554688 C 67.757812 94.554688 66.910156 94.46875 66.070312 94.304688 C 65.230469 94.136719 64.414062 93.890625 63.621094 93.566406 C 62.832031 93.242188 62.078125 92.839844 61.367188 92.367188 C 60.65625 91.894531 59.996094 91.359375 59.390625 90.757812 C 58.785156 90.15625 58.242188 89.5 57.765625 88.792969 C 57.292969 88.085938 56.890625 87.339844 56.5625 86.550781 C 56.234375 85.765625 55.988281 84.953125 55.820312 84.121094 C 55.652344 83.285156 55.570312 82.441406 55.570312 81.589844 C 55.570312 80.742188 55.652344 79.898438 55.820312 79.0625 C 55.988281 78.226562 56.234375 77.417969 56.5625 76.632812 C 56.890625 75.84375 57.292969 75.097656 57.765625 74.390625 C 58.242188 73.683594 58.785156 73.027344 59.390625 72.425781 C 59.996094 71.824219 60.65625 71.289062 61.367188 70.816406 C 62.078125 70.339844 62.832031 69.941406 63.621094 69.617188 C 64.414062 69.292969 65.230469 69.046875 66.070312 68.878906 C 66.910156 68.714844 67.757812 68.628906 68.613281 68.628906 C 69.46875 68.628906 70.320312 68.714844 71.160156 68.878906 C 72 69.046875 72.816406 69.292969 73.605469 69.617188 C 74.398438 69.941406 75.148438 70.339844 75.863281 70.816406 C 76.574219 71.289062 77.234375 71.824219 77.839844 72.425781 Z M 77.839844 72.425781 " fill-opacity="1" fill-rule="nonzero"/><path fill="#0643f2" d="M 81.140625 77.878906 C 81.296875 78.6875 81.371094 79.5 81.371094 80.324219 C 81.371094 81.144531 81.292969 81.960938 81.132812 82.765625 C 80.976562 83.574219 80.746094 84.359375 80.4375 85.121094 C 80.128906 85.886719 79.753906 86.613281 79.304688 87.304688 C 78.859375 87.996094 78.351562 88.640625 77.78125 89.238281 C 77.210938 89.832031 76.589844 90.371094 75.917969 90.847656 C 75.246094 91.328125 74.53125 91.738281 73.78125 92.082031 C 73.027344 92.425781 72.25 92.695312 71.449219 92.894531 C 70.644531 93.089844 69.828125 93.210938 69.003906 93.253906 C 68.175781 93.296875 67.355469 93.261719 66.535156 93.148438 C 65.714844 93.035156 64.914062 92.847656 64.128906 92.582031 C 63.347656 92.320312 62.59375 91.984375 61.875 91.578125 C 61.15625 91.171875 60.480469 90.703125 59.851562 90.167969 C 59.222656 89.632812 58.648438 89.046875 58.132812 88.40625 C 57.617188 87.761719 57.164062 87.078125 56.78125 86.351562 C 56.394531 85.625 56.082031 84.867188 55.839844 84.078125 C 56.007812 84.945312 56.257812 85.78125 56.597656 86.59375 C 56.9375 87.40625 57.355469 88.175781 57.851562 88.90625 C 58.347656 89.632812 58.914062 90.304688 59.546875 90.917969 C 60.183594 91.53125 60.871094 92.074219 61.617188 92.550781 C 62.363281 93.023438 63.148438 93.417969 63.976562 93.734375 C 64.800781 94.050781 65.652344 94.277344 66.523438 94.421875 C 67.398438 94.566406 68.277344 94.621094 69.160156 94.585938 C 70.046875 94.550781 70.917969 94.429688 71.777344 94.21875 C 72.636719 94.007812 73.464844 93.714844 74.265625 93.335938 C 75.0625 92.957031 75.816406 92.503906 76.523438 91.972656 C 77.230469 91.441406 77.875 90.84375 78.457031 90.183594 C 79.042969 89.523438 79.550781 88.8125 79.992188 88.046875 C 80.429688 87.28125 80.785156 86.480469 81.058594 85.644531 C 81.332031 84.808594 81.519531 83.953125 81.617188 83.078125 C 81.714844 82.207031 81.726562 81.332031 81.644531 80.457031 C 81.566406 79.578125 81.398438 78.71875 81.140625 77.878906 Z M 81.140625 77.878906 " fill-opacity="1" fill-rule="nonzero"/><path fill="#0643f2" d="M 75.304688 88.628906 C 74.769531 89.070312 74.195312 89.453125 73.585938 89.78125 C 72.976562 90.105469 72.339844 90.371094 71.675781 90.574219 C 71.015625 90.777344 70.335938 90.914062 69.648438 90.984375 C 68.957031 91.054688 68.269531 91.054688 67.578125 90.992188 C 66.886719 90.925781 66.210938 90.792969 65.546875 90.597656 C 64.882812 90.398438 64.242188 90.140625 63.628906 89.816406 C 63.015625 89.496094 62.441406 89.117188 61.90625 88.679688 C 61.367188 88.246094 60.878906 87.761719 60.433594 87.230469 C 59.992188 86.703125 59.609375 86.132812 59.277344 85.527344 C 58.949219 84.921875 58.683594 84.289062 58.480469 83.628906 C 58.273438 82.96875 58.136719 82.296875 58.066406 81.613281 C 57.996094 80.929688 57.996094 80.242188 58.058594 79.554688 C 58.125 78.871094 58.257812 78.199219 58.457031 77.539062 C 58.65625 76.878906 58.917969 76.242188 59.242188 75.632812 C 59.566406 75.027344 59.945312 74.453125 60.382812 73.917969 C 60.820312 73.386719 61.308594 72.898438 61.84375 72.460938 C 62.375 72.019531 62.949219 71.636719 63.558594 71.3125 C 64.167969 70.984375 64.804688 70.71875 65.46875 70.515625 C 66.132812 70.3125 66.808594 70.175781 67.496094 70.109375 C 68.1875 70.039062 68.878906 70.035156 69.566406 70.101562 C 70.257812 70.164062 70.933594 70.296875 71.601562 70.492188 C 72.265625 70.691406 72.902344 70.949219 73.515625 71.273438 C 74.128906 71.59375 74.703125 71.972656 75.242188 72.410156 C 75.777344 72.84375 76.269531 73.328125 76.710938 73.859375 C 77.152344 74.390625 77.539062 74.957031 77.867188 75.5625 C 78.195312 76.171875 78.460938 76.804688 78.667969 77.460938 C 78.871094 78.121094 79.007812 78.792969 79.078125 79.476562 C 79.148438 80.164062 79.152344 80.847656 79.085938 81.535156 C 79.019531 82.21875 78.886719 82.894531 78.691406 83.550781 C 78.492188 84.210938 78.230469 84.847656 77.90625 85.457031 C 77.582031 86.066406 77.199219 86.636719 76.761719 87.171875 C 76.324219 87.703125 75.835938 88.191406 75.304688 88.628906 Z M 75.304688 88.628906 " fill-opacity="1" fill-rule="nonzero"/><path fill="#000f16" d="M 77.53125 75.980469 C 77.902344 76.5625 78.214844 77.175781 78.464844 77.816406 C 78.710938 78.460938 78.894531 79.121094 79.015625 79.800781 C 79.132812 80.476562 79.183594 81.160156 79.167969 81.847656 C 79.148438 82.539062 79.0625 83.21875 78.914062 83.890625 C 78.761719 84.5625 78.542969 85.210938 78.261719 85.839844 C 77.980469 86.46875 77.640625 87.066406 77.242188 87.628906 C 76.84375 88.191406 76.394531 88.710938 75.890625 89.1875 C 75.390625 89.660156 74.84375 90.082031 74.257812 90.449219 C 73.671875 90.820312 73.058594 91.125 72.410156 91.375 C 71.765625 91.621094 71.097656 91.804688 70.417969 91.921875 C 69.734375 92.039062 69.046875 92.089844 68.351562 92.074219 C 67.660156 92.054688 66.976562 91.972656 66.300781 91.820312 C 65.625 91.667969 64.96875 91.453125 64.335938 91.175781 C 63.703125 90.894531 63.101562 90.558594 62.535156 90.160156 C 61.96875 89.765625 61.445312 89.316406 60.96875 88.820312 C 60.492188 88.320312 60.066406 87.78125 59.695312 87.199219 C 59.324219 86.617188 59.015625 86.003906 58.765625 85.359375 C 58.515625 84.71875 58.332031 84.058594 58.214844 83.378906 C 58.097656 82.699219 58.046875 82.019531 58.0625 81.328125 C 58.082031 80.640625 58.164062 79.960938 58.316406 79.289062 C 58.46875 78.617188 58.6875 77.964844 58.96875 77.335938 C 59.246094 76.707031 59.589844 76.113281 59.988281 75.550781 C 60.386719 74.984375 60.835938 74.46875 61.339844 73.992188 C 61.839844 73.519531 62.382812 73.097656 62.96875 72.726562 C 63.554688 72.359375 64.171875 72.050781 64.820312 71.804688 C 65.464844 71.558594 66.128906 71.375 66.8125 71.257812 C 67.496094 71.140625 68.183594 71.089844 68.875 71.105469 C 69.570312 71.121094 70.253906 71.207031 70.929688 71.359375 C 71.605469 71.507812 72.261719 71.722656 72.894531 72.003906 C 73.527344 72.28125 74.128906 72.621094 74.695312 73.015625 C 75.261719 73.414062 75.78125 73.859375 76.261719 74.359375 C 76.738281 74.859375 77.164062 75.398438 77.53125 75.980469 Z M 77.53125 75.980469 " fill-opacity="1" fill-rule="nonzero"/><path fill="#ffffff" d="M 44.890625 101.085938 C 44.742188 101.207031 44.578125 101.257812 44.390625 101.242188 C 44.203125 101.222656 44.046875 101.140625 43.929688 100.996094 C 43.808594 100.851562 43.757812 100.6875 43.773438 100.5 C 43.792969 100.316406 43.875 100.160156 44.019531 100.042969 L 56.3125 89.941406 C 56.457031 89.824219 56.625 89.773438 56.8125 89.789062 C 57 89.808594 57.152344 89.886719 57.273438 90.03125 C 57.394531 90.175781 57.445312 90.34375 57.429688 90.527344 C 57.410156 90.714844 57.328125 90.867188 57.183594 90.988281 Z M 44.890625 101.085938 " fill-opacity="0.3" fill-rule="nonzero"/><path fill="#3aedb1" d="M 75.066406 83.089844 C 74.824219 83.089844 74.617188 83.003906 74.441406 82.835938 C 74.269531 82.664062 74.183594 82.460938 74.179688 82.21875 C 74.125 81.457031 73.898438 80.75 73.496094 80.101562 C 72.652344 78.769531 71.160156 78.09375 69.0625 78.09375 L 69.019531 78.09375 C 64.488281 78.113281 63.867188 81.882812 63.839844 82.046875 C 63.804688 82.285156 63.6875 82.480469 63.492188 82.625 C 63.292969 82.769531 63.074219 82.824219 62.832031 82.789062 C 62.589844 82.75 62.394531 82.636719 62.25 82.4375 C 62.101562 82.242188 62.046875 82.023438 62.085938 81.78125 C 62.371094 79.90625 64.183594 76.351562 69.011719 76.328125 L 69.0625 76.328125 C 75.808594 76.328125 75.953125 82.140625 75.953125 82.199219 C 75.957031 82.441406 75.871094 82.648438 75.699219 82.824219 C 75.53125 83 75.320312 83.085938 75.074219 83.089844 Z M 75.066406 83.089844 " fill-opacity="1" fill-rule="nonzero"/><path fill="#ffffff" d="M 71.039062 74.441406 C 70.9375 73.183594 69.355469 73.035156 68.40625 72.984375 C 67.433594 72.933594 66.0625 72.984375 63.589844 74.566406 C 61.910156 75.640625 60.472656 77.777344 60.136719 79.765625 C 59.910156 81.132812 59.925781 83.105469 61.085938 84.09375 C 62.199219 85.042969 63.972656 84.503906 64.730469 83.382812 C 65.527344 82.199219 65.289062 80.546875 65.753906 79.226562 C 66.289062 77.699219 67.007812 76.796875 68.476562 76.273438 C 69.359375 75.964844 71.144531 75.726562 71.039062 74.441406 Z M 71.039062 74.441406 " fill-opacity="0.3" fill-rule="nonzero"/><path fill="#d5e9f2" d="M 104.324219 108.53125 C 104.324219 108.53125 109.152344 114.164062 111.46875 115.8125 C 113.222656 117.066406 114.832031 110.625 108.8125 104.679688 C 102.921875 98.863281 97.992188 97.789062 97.992188 97.789062 Z M 104.324219 108.53125 " fill-opacity="1" fill-rule="nonzero"/><path fill="#a8d7e9" d="M 108.8125 104.679688 C 102.921875 98.863281 97.992188 97.789062 97.992188 97.789062 L 98.519531 98.683594 C 100.40625 99.714844 102.832031 101.363281 105.445312 103.945312 C 109.488281 107.941406 110.089844 112.15625 109.515625 114.117188 C 110.128906 114.726562 110.777344 115.292969 111.46875 115.8125 C 113.222656 117.066406 114.832031 110.625 108.8125 104.679688 Z M 108.8125 104.679688 " fill-opacity="1" fill-rule="nonzero"/><g fill="#cba95c" fill-opacity="1"><g transform="translate(58.308483, 286.916114)"><g><path d="M 4.46875 -148.796875 L 44.640625 -148.796875 L 44.640625 -147.3125 C 40.367188 -147.3125 37.265625 -146.019531 35.328125 -143.4375 C 33.398438 -140.863281 32.1875 -136.671875 31.6875 -130.859375 C 31.195312 -125.054688 30.953125 -117.25 30.953125 -107.4375 L 30.953125 -1.484375 L 49.84375 -1.484375 C 52.226562 -1.484375 55.328125 -1.554688 59.140625 -1.703125 C 62.960938 -1.859375 67.101562 -2.179688 71.5625 -2.671875 C 76.03125 -3.171875 80.472656 -3.941406 84.890625 -4.984375 C 89.304688 -6.023438 93.375 -7.390625 97.09375 -9.078125 C 100.8125 -10.765625 103.785156 -12.867188 106.015625 -15.390625 C 108.242188 -17.921875 109.359375 -20.972656 109.359375 -24.546875 L 110.859375 -24.546875 L 110.859375 0 L 4.46875 0 L 4.46875 -1.484375 C 8.726562 -1.484375 11.828125 -2.769531 13.765625 -5.34375 C 15.703125 -7.925781 16.914062 -12.144531 17.40625 -18 C 17.90625 -23.851562 18.15625 -31.640625 18.15625 -41.359375 L 18.15625 -107.4375 C 18.15625 -117.25 17.90625 -125.054688 17.40625 -130.859375 C 16.914062 -136.671875 15.703125 -140.863281 13.765625 -143.4375 C 11.828125 -146.019531 8.726562 -147.3125 4.46875 -147.3125 Z M 4.46875 -148.796875 "/></g></g></g><g fill="#cba95c" fill-opacity="1"><g transform="translate(174.252148, 287.071541)"><g><path d="M 32.3125 -1.5625 L 29.171875 -1.5625 L 29.171875 -26.65625 L 19.328125 -26.65625 L 19.328125 -25.09375 L 24.46875 -25.09375 L 24.46875 -11.546875 C 24.46875 -7.773438 23.148438 -5.015625 20.515625 -3.265625 C 19.335938 -2.460938 18.125 -2.0625 16.875 -2.0625 C 13.445312 -2.0625 11.460938 -3.820312 10.921875 -7.34375 C 10.835938 -7.925781 10.796875 -8.550781 10.796875 -9.21875 L 10.796875 -26.65625 L 1.25 -26.65625 L 1.25 -25.09375 L 6.078125 -25.09375 L 6.078125 -10.15625 C 6.117188 -3.007812 9.113281 0.582031 15.0625 0.625 C 18.195312 0.625 20.765625 -0.648438 22.765625 -3.203125 C 23.523438 -4.160156 24.132812 -5.222656 24.59375 -6.390625 L 25.03125 0 L 33.875 0 C 33.875 -0.914062 33.5625 -1.414062 32.9375 -1.5 C 32.769531 -1.539062 32.5625 -1.5625 32.3125 -1.5625 Z M 32.3125 -1.5625 "/></g></g></g><g fill="#cba95c" fill-opacity="1"><g transform="translate(209.820447, 287.071541)"><g><path d="M 24.53125 0.625 C 27.75 0.625 29.523438 -1.316406 29.859375 -5.203125 C 29.898438 -5.453125 29.921875 -5.679688 29.921875 -5.890625 L 28.296875 -5.953125 C 28.003906 -2.898438 27.1875 -1.351562 25.84375 -1.3125 C 24.757812 -1.394531 24.195312 -2.484375 24.15625 -4.578125 L 24.15625 -17.8125 C 24.15625 -23.789062 21.164062 -26.945312 15.1875 -27.28125 C 14.800781 -27.28125 14.421875 -27.28125 14.046875 -27.28125 C 9.367188 -27.28125 6.234375 -26.195312 4.640625 -24.03125 C 4.140625 -23.3125 3.890625 -22.597656 3.890625 -21.890625 C 3.890625 -20.597656 4.492188 -19.847656 5.703125 -19.640625 C 5.910156 -19.597656 6.117188 -19.578125 6.328125 -19.578125 C 7.296875 -19.578125 8.007812 -20.179688 8.46875 -21.390625 C 9.050781 -22.941406 9.445312 -23.863281 9.65625 -24.15625 C 10.457031 -25.195312 11.691406 -25.71875 13.359375 -25.71875 C 17.285156 -25.46875 19.316406 -23.3125 19.453125 -19.25 L 19.453125 -15.3125 C 9.617188 -15.3125 3.992188 -13.257812 2.578125 -9.15625 C 2.328125 -8.363281 2.203125 -7.507812 2.203125 -6.59375 C 2.203125 -3.40625 3.597656 -1.226562 6.390625 -0.0625 C 7.523438 0.394531 8.71875 0.625 9.96875 0.625 C 13.019531 0.625 15.59375 -0.421875 17.6875 -2.515625 C 18.4375 -3.304688 19.003906 -4.140625 19.390625 -5.015625 C 19.890625 -1.296875 21.601562 0.582031 24.53125 0.625 Z M 12.046875 -1.875 C 9.492188 -1.875 7.925781 -3.148438 7.34375 -5.703125 C 7.21875 -6.296875 7.15625 -6.945312 7.15625 -7.65625 C 7.15625 -10.457031 8.765625 -12.234375 11.984375 -12.984375 C 13.691406 -13.359375 16.179688 -13.566406 19.453125 -13.609375 L 19.453125 -8.59375 C 18.816406 -5.707031 17.285156 -3.679688 14.859375 -2.515625 C 13.898438 -2.085938 12.960938 -1.875 12.046875 -1.875 Z M 12.046875 -1.875 "/></g></g></g><g fill="#cba95c" fill-opacity="1"><g transform="translate(240.056638, 287.071541)"><g><path d="M 14.734375 -1.5625 L 11.609375 -1.5625 L 11.609375 -26.65625 L 1.875 -26.65625 L 1.875 -25.09375 L 6.90625 -25.09375 L 6.90625 -5.328125 C 6.90625 -3.410156 6.253906 -2.238281 4.953125 -1.8125 C 4.328125 -1.644531 3.300781 -1.5625 1.875 -1.5625 L 1.875 0 L 16.3125 0 C 16.3125 -0.914062 16 -1.414062 15.375 -1.5 C 15.164062 -1.539062 14.953125 -1.5625 14.734375 -1.5625 Z M 12.359375 -35.8125 C 12.359375 -37.28125 11.707031 -38.328125 10.40625 -38.953125 C 9.90625 -39.160156 9.425781 -39.265625 8.96875 -39.265625 C 7.507812 -39.265625 6.460938 -38.597656 5.828125 -37.265625 C 5.617188 -36.804688 5.515625 -36.320312 5.515625 -35.8125 C 5.515625 -34.269531 6.207031 -33.207031 7.59375 -32.625 C 8.050781 -32.457031 8.507812 -32.375 8.96875 -32.375 C 10.4375 -32.375 11.460938 -33.039062 12.046875 -34.375 C 12.253906 -34.832031 12.359375 -35.3125 12.359375 -35.8125 Z M 12.359375 -35.8125 "/></g></g></g><g fill="#947c47" fill-opacity="1"><g transform="translate(258.828905, 286.65712)"><g><path d="M 8.921875 -2.703125 C 8.921875 -3.992188 8.332031 -4.910156 7.15625 -5.453125 C 6.769531 -5.648438 6.359375 -5.75 5.921875 -5.75 C 4.628906 -5.75 3.734375 -5.160156 3.234375 -3.984375 C 3.035156 -3.554688 2.9375 -3.128906 2.9375 -2.703125 C 2.9375 -1.453125 3.503906 -0.550781 4.640625 0 C 5.066406 0.195312 5.492188 0.296875 5.921875 0.296875 C 7.179688 0.296875 8.082031 -0.269531 8.625 -1.40625 C 8.820312 -1.832031 8.921875 -2.265625 8.921875 -2.703125 Z M 8.921875 -2.703125 "/></g></g></g><g fill="#947c47" fill-opacity="1"><g transform="translate(270.681281, 286.65712)"><g><path d="M 13.796875 -1.46875 L 10.859375 -1.46875 L 10.859375 -24.9375 L 1.765625 -24.9375 L 1.765625 -23.46875 L 6.453125 -23.46875 L 6.453125 -4.984375 C 6.453125 -3.179688 5.847656 -2.085938 4.640625 -1.703125 C 4.046875 -1.546875 3.085938 -1.46875 1.765625 -1.46875 L 1.765625 0 L 15.265625 0 C 15.265625 -0.863281 14.96875 -1.332031 14.375 -1.40625 C 14.175781 -1.445312 13.984375 -1.46875 13.796875 -1.46875 Z M 11.5625 -33.515625 C 11.5625 -34.878906 10.953125 -35.851562 9.734375 -36.4375 C 9.265625 -36.632812 8.816406 -36.734375 8.390625 -36.734375 C 7.023438 -36.734375 6.046875 -36.109375 5.453125 -34.859375 C 5.265625 -34.429688 5.171875 -33.984375 5.171875 -33.515625 C 5.171875 -32.066406 5.8125 -31.066406 7.09375 -30.515625 C 7.53125 -30.359375 7.960938 -30.28125 8.390625 -30.28125 C 9.765625 -30.28125 10.722656 -30.90625 11.265625 -32.15625 C 11.460938 -32.59375 11.5625 -33.046875 11.5625 -33.515625 Z M 11.5625 -33.515625 "/></g></g></g><g fill="#947c47" fill-opacity="1"><g transform="translate(287.697069, 286.65712)"><g><path d="M 7.328125 -12.5 C 7.328125 -18.5625 8.992188 -22.257812 12.328125 -23.59375 C 13.179688 -23.90625 14.082031 -24.0625 15.03125 -24.0625 C 19.363281 -24.0625 21.882812 -21.320312 22.59375 -15.84375 C 22.707031 -14.90625 22.765625 -13.867188 22.765625 -12.734375 C 22.765625 -6.160156 20.96875 -2.304688 17.375 -1.171875 C 16.664062 -0.972656 15.941406 -0.875 15.203125 -0.875 C 11.242188 -0.875 8.757812 -3.222656 7.75 -7.921875 C 7.46875 -9.285156 7.328125 -10.8125 7.328125 -12.5 Z M 15.203125 -25.53125 C 11.441406 -25.53125 8.3125 -24.238281 5.8125 -21.65625 C 3.5 -19.269531 2.34375 -16.296875 2.34375 -12.734375 C 2.34375 -7.804688 4.144531 -4.109375 7.75 -1.640625 C 9.9375 -0.148438 12.363281 0.59375 15.03125 0.59375 C 18.78125 0.59375 21.890625 -0.738281 24.359375 -3.40625 C 26.628906 -5.832031 27.765625 -8.863281 27.765625 -12.5 C 27.765625 -17.425781 25.941406 -21.082031 22.296875 -23.46875 C 20.148438 -24.84375 17.785156 -25.53125 15.203125 -25.53125 Z M 15.203125 -25.53125 "/></g></g></g></svg>